<svg xmlns="http://www.w3.org/2000/svg" xmlns:xlink="http://www.w3.org/1999/xlink" version="1.1" id="Vrstva_1" x="0px" y="0px" width="336px" height="99.189px" viewBox="0 0 336 99.189" enable-background="new 0 0 336.000 99.189" xml:space="preserve">
<rect x="103.215" y="0" fill="#009CA6" width="232.307" height="99.189"></rect>
<rect x="0" y="0" fill="#E4002B" width="99.188" height="99.188"></rect>
<path fill="#FFFFFF" d="M46.602,15.197h-30.66v11.178h30.659v56.302h11.531v-38.916c0,-3.954,3.432,-7.161,7.663,-7.161h17.196v-10.225h-36.389V15.197z"></path>
<path fill="#FFFFFF" d="M150.586,21.090h-12.431c-7.847,0,-13.208,5.362,-13.208,13.21v27.97c0,7.849,5.361,13.207,13.208,13.207h12.431c7.847,0,13.208,-5.358,13.208,-13.207v-3.34h-9.323v3.807c0,2.798,-1.865,4.662,-4.662,4.662h-10.877c-2.797,0,-4.662,-1.864,-4.662,-4.662v-28.904c0,-2.796,1.865,-4.66,4.662,-4.66h10.877c2.797,0,4.662,1.864,4.662,4.66v3.807h9.323V34.300C163.794,26.452,158.433,21.090,150.586,21.090z"></path>
<polygon fill="#FFFFFF" points="186.325 52.168 208.857 52.168 208.857 44.088 186.325 44.088 186.325 29.172 210.41 29.172 210.41 21.09 177.002 21.09 177.002 75.477 211.187 75.477 211.187 67.396 186.325 67.396"></polygon>
<path fill="#FFFFFF" d="M297.818,21.090h-9.635l-18.724,54.387h8.854l4.584,-13.752h19.349l4.584,13.752h9.711L297.818,21.090zM285.543,53.646l6.916,-20.59h0.309l6.838,20.59H285.543z"></path>
<path fill="#FFFFFF" d="M248.482,44.088h-10.879c-2.797,0,-4.66,-1.865,-4.66,-4.662v-5.594c0,-2.796,1.863,-4.66,4.66,-4.66h9.713c2.797,0,4.662,1.864,4.662,4.66v3.807h9.324V34.300c0,-7.848,-5.361,-13.21,-13.209,-13.21h-11.269c-7.847,0,-13.207,5.362,-13.207,13.21v4.66c0,7.849,5.36,13.208,13.207,13.208h10.879c2.797,0,4.662,1.866,4.662,4.663v5.903c0,2.799,-1.865,4.662,-4.662,4.662h-10.879c-2.798,0,-4.66,-1.863,-4.66,-4.662v-3.807h-9.324v3.342c0,7.848,5.361,13.207,13.209,13.207h12.433c7.846,0,13.207,-5.359,13.207,-13.207v-4.975C261.689,49.449,256.328,44.088,248.482,44.088z"></path>
</svg>