<svg xmlns="http://www.w3.org/2000/svg" xmlns:xlink="http://www.w3.org/1999/xlink" version="1.1" id="Vrstva_1" x="0px" y="0px" width="223.439px" height="99.212px" viewBox="0 0 223.439 99.212" enable-background="new 0 0 223.439 99.212" xml:space="preserve">
<polygon fill="#FFFFFF" points="46.614 15.176 15.946 15.176 15.946 26.357 46.614 26.357 46.614 26.355"></polygon>
<path fill="#FFFFFF" d="M46.614,82.672h11.533v-38.926c0,-3.955,3.432,-7.162,7.664,-7.162h17.199v-10.229l-36.396,0.002V82.672z"></path>
<path fill="#FFFFFF" d="M186.959,21.070h-9.637l-18.73,54.4h8.861l4.584,-13.756h19.352l4.586,13.756h9.715L186.959,21.070zM174.680,53.633l6.918,-20.594h0.312l6.838,20.594H174.680z"></path>
<polygon fill="#FFFFFF" points="124.79 75.471 134.113 75.471 134.113 52.156 155.098 52.156 155.098 44.074 134.113 44.074 134.113 29.152 156.65 29.152 156.65 21.07 124.79 21.07"></polygon>
<path fill="#E4002B" d="M0.000,99.212h99.213V0.000H0.000V99.212zM83.010,36.584h-17.199c-4.233,0,-7.664,3.207,-7.664,7.162v38.926h-11.533v-56.314h-30.668v-11.182h30.668v11.18v0.002l36.396,-0.002V36.584z"></path>
<path fill="#7A99AC" d="M103.241,0.000v99.212h120.198V0.000H103.241zM156.650,29.152h-22.537v14.922h20.984v8.082h-20.984v23.313h-9.324V21.070h31.861V29.152zM195.975,75.471l-4.586,-13.755h-19.352l-4.584,13.755h-8.861l18.73,-54.4h9.637l18.73,54.4H195.975z"></path>
<polygon fill="#7A99AC" points="181.598 33.039 174.68 53.633 188.746 53.633 181.908 33.039"></polygon>
</svg>