<svg xmlns="http://www.w3.org/2000/svg" xmlns:xlink="http://www.w3.org/1999/xlink" version="1.1" id="Vrstva_1" x="0px" y="0px" width="225.377px" height="99.212px" viewBox="0 0 225.377 99.212" enable-background="new 0 0 225.377 99.212" xml:space="preserve">
<rect x="0" y="0" fill="#E4002B" width="99.213" height="99.212"></rect>
<rect x="103.241" y="0.000976563" fill="#8246AF" width="122.136" height="99.211"></rect>
<path fill="#FFFFFF" d="M46.613,82.672h11.533v-38.926c0,-3.956,3.433,-7.162,7.665,-7.162h17.199v-10.229l-36.397,0.002V82.672z"></path>
<polygon fill="#FFFFFF" points="46.613 15.176 15.946 15.176 15.946 26.357 46.613 26.357 46.613 26.355"></polygon>
<path fill="#FFFFFF" d="M168.105,21.070v54.399h9.326v-20.981h14.766c7.85,0,13.212,-5.362,13.212,-13.211v-6.995c0,-7.849,-5.362,-13.212,-13.212,-13.212H168.105zM196.084,33.816v7.927c0,2.798,-1.863,4.663,-4.663,4.663h-13.987v-17.254h13.987C194.221,29.152,196.084,31.018,196.084,33.816z"></path>
<polygon fill="#FFFFFF" points="156.839 29.152 156.839 21.07 124.977 21.07 124.977 75.47 134.303 75.47 134.303 52.157 155.285 52.157 155.285 44.074 134.303 44.074 134.303 29.152"></polygon>
<path fill="#8246AF" d="M177.434,29.152v17.254h13.987c2.8,0,4.663,-1.865,4.663,-4.663v-7.927c0,-2.799,-1.863,-4.664,-4.663,-4.664H177.434z"></path>
</svg>