<svg xmlns="http://www.w3.org/2000/svg" xmlns:xlink="http://www.w3.org/1999/xlink" version="1.1" id="Vrstva_1" x="0px" y="0px" width="321.121px" height="99.213px" viewBox="0 0 321.121 99.213" enable-background="new 0 0 321.121 99.213" xml:space="preserve">
<rect x="103.242" y="0" fill="#658D1B" width="217.879" height="99.213"></rect>
<rect x="0" y="0" fill="#E4002B" width="99.213" height="99.213"></rect>
<polygon fill="#FFFFFF" points="125.219 75.47 134.545 75.47 134.545 52.156 155.528 52.156 155.528 44.074 134.545 44.074 134.545 29.152 157.082 29.152 157.082 21.07 125.219 21.07"></polygon>
<path fill="#FFFFFF" d="M177.753,21.070l-18.729,54.399h8.859l4.586,-13.756h19.35l4.586,13.756h9.715l-18.729,-54.399H177.753zM175.111,53.631l6.916,-20.594h0.312l6.839,20.594H175.111z"></path>
<path fill="#FFFFFF" d="M239.537,44.074h-10.881c-2.799,0,-4.662,-1.865,-4.662,-4.663v-5.597c0,-2.797,1.863,-4.662,4.662,-4.662h9.715c2.797,0,4.662,1.865,4.662,4.662v3.81h9.326v-3.342c0,-7.851,-5.361,-13.212,-13.213,-13.212h-11.269c-7.851,0,-13.211,5.361,-13.211,13.212v4.661c0,7.851,5.36,13.213,13.211,13.213h10.881c2.798,0,4.662,1.863,4.662,4.662v5.906c0,2.797,-1.864,4.662,-4.662,4.662h-10.881c-2.797,0,-4.662,-1.865,-4.662,-4.662v-3.809h-9.325v3.342c0,7.85,5.36,13.212,13.211,13.212h12.436c7.848,0,13.211,-5.362,13.211,-13.212v-4.973C252.748,49.436,247.385,44.074,239.537,44.074z"></path>
<polygon fill="#FFFFFF" points="262.072 21.07 262.072 29.152 277.615 29.152 277.615 75.47 286.941 75.47 286.941 29.152 302.484 29.152 302.484 21.07"></polygon>
<path fill="#FFFFFF" d="M46.613,82.671h11.533v-38.924c0,-3.956,3.434,-7.163,7.665,-7.163h17.199v-10.229h-36.397V82.671z"></path>
<polygon fill="#FFFFFF" points="46.613 15.175 15.946 15.175 15.946 26.355 46.613 26.355 46.613 26.355"></polygon>
<polygon fill="#658D1B" points="182.338 33.038 182.027 33.038 175.111 53.631 189.178 53.631"></polygon>
</svg>