<svg xmlns="http://www.w3.org/2000/svg" xmlns:xlink="http://www.w3.org/1999/xlink" version="1.1" id="Vrstva_1" x="0px" y="0px" width="282.266px" height="99.213px" viewBox="0 0 282.266 99.213" enable-background="new 0 0 282.266 99.213" xml:space="preserve">
<rect x="103.241" y="0" fill="#00AB8E" width="179.024" height="99.213"></rect>
<rect x="0" y="0" fill="#E4002B" width="99.213" height="99.213"></rect>
<path fill="#FFFFFF" d="M46.613,82.673h11.533v-38.926c0,-3.956,3.433,-7.162,7.665,-7.162h17.199v-10.228h-36.397V82.673z"></path>
<polygon fill="#FFFFFF" points="46.613 15.177 15.946 15.177 15.946 26.357 46.613 26.357 46.613 26.357"></polygon>
<polygon fill="#FFFFFF" points="124.916 75.471 134.242 75.471 134.242 52.158 155.225 52.158 155.225 44.076 134.242 44.076 134.242 29.154 156.779 29.154 156.779 21.072 124.916 21.072"></polygon>
<path fill="#FFFFFF" d="M193.693,21.072h-12.437c-7.848,0,-13.21,5.361,-13.21,13.212v27.976c0,7.85,5.362,13.211,13.21,13.211h12.437c7.85,0,13.211,-5.361,13.211,-13.211v-3.342h-9.326v3.809c0,2.797,-1.865,4.662,-4.662,4.662h-10.881c-2.797,0,-4.662,-1.865,-4.662,-4.662v-28.91c0,-2.797,1.863,-4.662,4.662,-4.662h10.881c2.797,0,4.662,1.865,4.662,4.662v3.808h9.326v-3.34C206.904,26.434,201.543,21.072,193.693,21.072z"></path>
<polygon fill="#FFFFFF" points="251.201 21.072 251.201 44.076 229.441 44.076 229.441 21.072 220.115 21.072 220.115 75.471 229.441 75.471 229.441 52.158 251.201 52.158 251.201 75.471 260.525 75.471 260.525 21.072"></polygon>
</svg>