<svg xmlns="http://www.w3.org/2000/svg" xmlns:xlink="http://www.w3.org/1999/xlink" version="1.1" id="Vrstva_1" x="0px" y="0px" width="318.609px" height="99.212px" viewBox="0 0 318.609 99.212" enable-background="new 0 0 318.609 99.212" xml:space="preserve">
<rect x="0" y="0" fill="#E4002B" width="99.213" height="99.212"></rect>
<rect x="103.242" y="0.000976563" fill="#E782A9" width="215.367" height="99.211"></rect>
<polygon fill="#FFFFFF" points="46.613 15.176 15.946 15.176 15.946 26.357 46.613 26.357 46.613 26.355"></polygon>
<path fill="#FFFFFF" d="M46.613,82.672h11.534v-38.925c0,-3.956,3.433,-7.162,7.665,-7.162h17.198v-10.229l-36.397,0.002V82.672z"></path>
<polygon fill="#FFFFFF" points="124.929 75.47 134.255 75.47 134.255 52.157 155.238 52.157 155.238 44.074 134.255 44.074 134.255 29.152 156.792 29.152 156.792 21.07 124.929 21.07"></polygon>
<polygon fill="#FFFFFF" points="224.557 62.57 224.246 62.57 211.346 21.07 201.631 21.07 219.195 75.47 228.831 75.47 246.395 21.07 237.535 21.07"></polygon>
<path fill="#FFFFFF" d="M181.038,36.070c-11.892,0,-15.543,4.585,-15.543,12.978h8.937v-0.932c0,-2.798,1.479,-4.663,5.053,-4.663h2.72c3.964,0,5.829,1.865,5.829,5.828v2.643h-6.605c-12.123,0,-17.253,4.74,-17.253,12.823c0,6.916,4.507,11.269,12.513,11.269c5.75,0,8.625,-2.33,11.035,-5.052h0.312l0.776,4.507h8.16v-25.257C196.969,41.044,192.540,36.070,181.038,36.070zM188.031,61.249c0,3.81,-3.264,7.383,-8.549,7.383h-1.32c-3.73,0,-5.207,-1.787,-5.207,-4.585c0,-4.041,3.031,-5.207,8.005,-5.207h7.072L188.031,61.249L188.031,61.249z"></path>
<path fill="#FFFFFF" d="M287.583,21.070v41.656c0,2.797,-1.866,4.662,-4.663,4.662h-12.436c-2.797,0,-4.662,-1.865,-4.662,-4.662V21.070h-9.325v41.188c0,7.851,5.362,13.212,13.211,13.212h13.989c7.849,0,13.211,-5.361,13.211,-13.212V21.070H287.583z"></path>
</svg>