<svg xmlns="http://www.w3.org/2000/svg" xmlns:xlink="http://www.w3.org/1999/xlink" version="1.1" id="Vrstva_1" x="0px" y="0px" width="247.648px" height="99.213px" viewBox="0 0 247.648 99.213" enable-background="new 0 0 247.648 99.213" xml:space="preserve">
<rect x="0" y="0" fill="#E4002B" width="99.213" height="99.213"></rect>
<rect x="103.241" y="0.000976563" fill="#00A9E0" width="144.407" height="99.212"></rect>
<path fill="#FFFFFF" d="M58.146,82.673v-38.926c0,-3.956,3.433,-7.162,7.665,-7.162h17.198v-10.228h-36.396v56.315H58.146z"></path>
<polygon fill="#FFFFFF" points="46.613 26.357 46.613 15.177 15.946 15.177 15.946 26.357 46.613 26.357"></polygon>
<polygon fill="#FFFFFF" points="187.475 29.154 203.018 29.154 203.018 75.471 212.344 75.471 212.344 29.154 227.887 29.154 227.887 21.072 187.475 21.072"></polygon>
<rect x="168.046" y="21.072" fill="#FFFFFF" width="9.326" height="54.398"></rect>
<polygon fill="#FFFFFF" points="124.916 75.471 134.242 75.471 134.242 52.158 155.225 52.158 155.225 44.075 134.242 44.075 134.242 29.154 156.777 29.154 156.777 21.072 124.916 21.072"></polygon>
</svg>