<svg xmlns="http://www.w3.org/2000/svg" xmlns:xlink="http://www.w3.org/1999/xlink" version="1.1" id="Vrstva_1" x="0px" y="0px" width="251.159px" height="99.212px" viewBox="0 0 251.159 99.212" enable-background="new 0 0 251.159 99.212" xml:space="preserve">
<rect x="103.241" y="0.000976563" fill="#004F71" width="147.918" height="99.211"></rect>
<rect x="0" y="0" fill="#E4002B" width="99.213" height="99.212"></rect>
<path fill="#FFFFFF" d="M46.613,82.673h11.533v-38.926c0,-3.956,3.433,-7.162,7.665,-7.162h17.199v-10.229l-36.397,0.002V82.673z"></path>
<polygon fill="#FFFFFF" points="46.613 15.177 15.946 15.177 15.946 26.357 46.613 26.357 46.613 26.355"></polygon>
<polygon fill="#FFFFFF" points="156.791 29.152 156.791 21.07 124.928 21.07 124.928 75.471 134.254 75.471 134.254 52.157 155.236 52.157 155.236 44.074 134.254 44.074 134.254 29.152"></polygon>
<path fill="#FFFFFF" d="M167.281,58.918v3.342c0,7.85,5.361,13.211,13.212,13.211h12.435c7.848,0,13.211,-5.361,13.211,-13.211v-4.974c0,-7.849,-5.363,-13.212,-13.211,-13.212h-10.881c-2.798,0,-4.662,-1.865,-4.662,-4.662v-5.596c0,-2.799,1.864,-4.664,4.662,-4.664h9.715c2.797,0,4.662,1.865,4.662,4.664v3.808h9.326v-3.342c0,-7.849,-5.361,-13.212,-13.211,-13.212h-11.27c-7.85,0,-13.213,5.363,-13.213,13.212v4.663c0,7.849,5.363,13.212,13.213,13.212h10.879c2.799,0,4.664,1.864,4.664,4.663v5.906c0,2.797,-1.865,4.662,-4.664,4.662h-10.879c-2.799,0,-4.664,-1.865,-4.664,-4.662v-3.81L167.281,58.918L167.281,58.918z"></path>
<rect x="220.126" y="21.072" fill="#FFFFFF" width="9.326" height="54.397"></rect>
</svg>