<svg xmlns="http://www.w3.org/2000/svg" xmlns:xlink="http://www.w3.org/1999/xlink" version="1.1" id="Vrstva_1" x="0px" y="0px" width="263.148px" height="99.212px" viewBox="0 0 263.148 99.212" enable-background="new 0 0 263.148 99.212" xml:space="preserve">
<polygon fill="#E4002B" points="0 0 0 99.212 99.213 99.212 99.213 0"></polygon>
<polygon fill="#201547" points="103.241 0.000976563 103.241 99.212 263.148 99.212 263.148 0.000976563"></polygon>
<polygon fill="#FFFFFF" points="46.613 15.177 15.945 15.177 15.945 26.357 46.613 26.357 46.613 26.357"></polygon>
<path fill="#FFFFFF" d="M46.613,82.673h11.533v-38.926c0,-3.956,3.433,-7.162,7.664,-7.162h17.2v-10.228h-36.396L46.613,82.673L46.613,82.673z"></path>
<path fill="#FFFFFF" d="M179.305,58.917v3.343c0,7.85,5.362,13.209,13.213,13.209h12.433c7.85,0,13.213,-5.359,13.213,-13.209v-4.974c0,-7.849,-5.363,-13.211,-13.213,-13.211h-10.88c-2.799,0,-4.663,-1.866,-4.663,-4.664v-5.595c0,-2.797,1.864,-4.664,4.663,-4.664h9.714c2.798,0,4.663,1.865,4.663,4.664v3.808h9.326v-3.342c0,-7.849,-5.362,-13.212,-13.211,-13.212h-11.271c-7.849,0,-13.212,5.363,-13.212,13.212v4.663c0,7.851,5.363,13.212,13.212,13.212h10.88c2.799,0,4.663,1.864,4.663,4.663v5.906c0,2.799,-1.864,4.662,-4.663,4.662h-10.88c-2.798,0,-4.663,-1.863,-4.663,-4.662v-3.81H179.305L179.305,58.917z"></path>
<polygon fill="#FFFFFF" points="241.477 75.47 241.477 21.07 232.148 21.07 232.148 75.47"></polygon>
<path fill="#FFFFFF" d="M138.116,75.470h13.987c7.85,0,13.213,-5.358,13.213,-13.209v-41.19h-9.326v41.656c0,2.799,-1.865,4.662,-4.663,4.662h-12.435c-2.797,0,-4.662,-1.863,-4.662,-4.662V21.070h-9.327v41.189C124.904,70.109,130.266,75.470,138.116,75.470L138.116,75.470z"></path>
<polygon fill="#FFFFFF" points="146.82 18.506 156.301 8.24799 146.12 8.24799 139.592 18.506"></polygon>
</svg>