<svg width="20" height="20" viewBox="0 0 20 20" fill="none" xmlns="http://www.w3.org/2000/svg">
<mask id="path-1-inside-1_444_1307" fill="white">
<path d="M12 10.002L8 6.00196V9.00196H0V11.002H8V14.002M20 10.002C20.0005 12.3915 19.1453 14.7022 17.5893 16.5156C16.0333 18.3291 13.8794 19.5255 11.5175 19.8881C9.15569 20.2507 6.74208 19.7556 4.71373 18.4924C2.68538 17.2293 1.17639 15.2816 0.46 13.002H2.59C3.2862 14.723 4.55932 16.1484 6.19117 17.0337C7.82301 17.9191 9.71198 18.2093 11.5343 17.8547C13.3567 17.5 14.999 16.5226 16.1797 15.0899C17.3605 13.6572 18.0062 11.8585 18.0062 10.002C18.0062 8.14541 17.3605 6.34667 16.1797 4.91399C14.999 3.48131 13.3567 2.5039 11.5343 2.14926C9.71198 1.79463 7.82301 2.08486 6.19117 2.97021C4.55932 3.85555 3.2862 5.28089 2.59 7.00196H0.46C1.17639 4.72236 2.68538 2.77464 4.71373 1.51148C6.74208 0.24832 9.15569 -0.246777 11.5175 0.115839C13.8794 0.478455 16.0333 1.67481 17.5893 3.48828C19.1453 5.30175 20.0005 7.61244 20 10.002Z"/>
</mask>
<path d="M12 10.002L8 6.00196V9.00196H0V11.002H8V14.002M20 10.002C20.0005 12.3915 19.1453 14.7022 17.5893 16.5156C16.0333 18.3291 13.8794 19.5255 11.5175 19.8881C9.15569 20.2507 6.74208 19.7556 4.71373 18.4924C2.68538 17.2293 1.17639 15.2816 0.46 13.002H2.59C3.2862 14.723 4.55932 16.1484 6.19117 17.0337C7.82301 17.9191 9.71198 18.2093 11.5343 17.8547C13.3567 17.5 14.999 16.5226 16.1797 15.0899C17.3605 13.6572 18.0062 11.8585 18.0062 10.002C18.0062 8.14541 17.3605 6.34667 16.1797 4.91399C14.999 3.48131 13.3567 2.5039 11.5343 2.14926C9.71198 1.79463 7.82301 2.08486 6.19117 2.97021C4.55932 3.85555 3.2862 5.28089 2.59 7.00196H0.46C1.17639 4.72236 2.68538 2.77464 4.71373 1.51148C6.74208 0.24832 9.15569 -0.246777 11.5175 0.115839C13.8794 0.478455 16.0333 1.67481 17.5893 3.48828C19.1453 5.30175 20.0005 7.61244 20 10.002Z" fill="#04FF3B"/>
<path d="M8 6.00196L8.21213 5.78983L7.7 5.27769V6.00196H8ZM8 9.00196V9.30196H8.3V9.00196H8ZM0 9.00196V8.70196H-0.3V9.00196H0ZM0 11.002H-0.3V11.302H0V11.002ZM8 11.002H8.3V10.702H8V11.002ZM20 10.002L19.7 10.0019L19.7 10.002L20 10.002ZM0.46 13.002V12.702H0.0512558L0.1738 13.0919L0.46 13.002ZM2.59 13.002L2.86811 12.8895L2.79226 12.702H2.59V13.002ZM2.59 7.00196V7.30196H2.79226L2.86811 7.11446L2.59 7.00196ZM0.46 7.00196L0.1738 6.91202L0.0512558 7.30196H0.46V7.00196ZM12.2121 9.78983L8.21213 5.78983L7.78787 6.21409L11.7879 10.2141L12.2121 9.78983ZM7.7 6.00196V9.00196H8.3V6.00196H7.7ZM8 8.70196H0V9.30196H8V8.70196ZM-0.3 9.00196V11.002H0.3V9.00196H-0.3ZM0 11.302H8V10.702H0V11.302ZM7.7 11.002V14.002H8.3V11.002H7.7ZM19.7 10.002C19.7004 12.3198 18.8709 14.5612 17.3616 16.3203L17.817 16.711C19.4196 14.8431 20.3005 12.4631 20.3 10.0019L19.7 10.002ZM17.3616 16.3203C15.8523 18.0793 13.763 19.2398 11.472 19.5916L11.5631 20.1846C13.9958 19.8111 16.2143 18.5789 17.817 16.711L17.3616 16.3203ZM11.472 19.5916C9.18102 19.9433 6.83981 19.463 4.87232 18.2378L4.55514 18.7471C6.64434 20.0481 9.13036 20.5581 11.5631 20.1846L11.472 19.5916ZM4.87232 18.2378C2.90482 17.0125 1.4411 15.1232 0.7462 12.912L0.1738 13.0919C0.911684 15.4399 2.46594 17.446 4.55514 18.7471L4.87232 18.2378ZM0.46 13.302H2.59V12.702H0.46V13.302ZM2.31189 13.1145C3.0342 14.9001 4.35506 16.3789 6.0481 17.2974L6.33423 16.77C4.76358 15.9179 3.5382 14.546 2.86811 12.8895L2.31189 13.1145ZM6.0481 17.2974C7.74114 18.2159 9.70094 18.5171 11.5916 18.1491L11.477 17.5602C9.72301 17.9015 7.90488 17.6222 6.33423 16.77L6.0481 17.2974ZM11.5916 18.1491C13.4823 17.7812 15.1862 16.7671 16.4112 15.2807L15.9482 14.8991C14.8118 16.2781 13.2311 17.2188 11.477 17.5602L11.5916 18.1491ZM16.4112 15.2807C17.6363 13.7943 18.3062 11.9281 18.3062 10.002H17.7062C17.7062 11.7889 17.0847 13.5202 15.9482 14.8991L16.4112 15.2807ZM18.3062 10.002C18.3062 8.07579 17.6363 6.20959 16.4112 4.72319L15.9482 5.10479C17.0847 6.48374 17.7062 8.21503 17.7062 10.002H18.3062ZM16.4112 4.72319C15.1862 3.23678 13.4823 2.22272 11.5916 1.85479L11.477 2.44374C13.2311 2.78507 14.8118 3.72583 15.9482 5.10479L16.4112 4.72319ZM11.5916 1.85479C9.70094 1.48686 7.74114 1.78797 6.0481 2.70652L6.33423 3.2339C7.90488 2.38175 9.72301 2.10241 11.477 2.44374L11.5916 1.85479ZM6.0481 2.70652C4.35506 3.62506 3.0342 5.10385 2.31189 6.88946L2.86811 7.11446C3.5382 5.45793 4.76358 4.08604 6.33423 3.2339L6.0481 2.70652ZM2.59 6.70196H0.46V7.30196H2.59V6.70196ZM0.7462 7.0919C1.4411 4.88069 2.90482 2.9914 4.87232 1.76614L4.55514 1.25683C2.46594 2.55788 0.911684 4.56403 0.1738 6.91202L0.7462 7.0919ZM4.87232 1.76614C6.83981 0.540871 9.18102 0.0606267 11.472 0.412364L11.5631 -0.180687C9.13036 -0.554181 6.64434 -0.0442313 4.55514 1.25683L4.87232 1.76614ZM11.472 0.412364C13.763 0.764102 15.8523 1.92457 17.3616 3.68363L17.817 3.29293C16.2143 1.42506 13.9958 0.192808 11.5631 -0.180687L11.472 0.412364ZM17.3616 3.68363C18.8709 5.4427 19.7004 7.68407 19.7 10.0019L20.3 10.002C20.3005 7.54082 19.4196 5.1608 17.817 3.29293L17.3616 3.68363Z" fill="black" mask="url(#path-1-inside-1_444_1307)"/>
</svg>
